<svg xmlns="http://www.w3.org/2000/svg" width="158" height="184" viewBox="0 0 158 184"><path fill="#D7B883" d="M24 5h134v179H24z"/><path fill="#5A3722" d="M0 5h28v179H0z"/><g><path fill="#fff" stroke="#5A3722" stroke-width=".25" stroke-miterlimit="10" d="M46.006 123.25L72.468 99.21l11.616 12.836-26.462 24.037-11.616-12.836zM101.776 53.347c3.196 0 6.448.524 9.64 1.628 15.385 5.324 23.542 22.113 18.22 37.498-4.22 12.194-15.64 19.848-27.858 19.848-3.196 0-6.45-.525-9.642-1.63-15.385-5.322-23.543-22.11-18.218-37.496 4.22-12.194 15.64-19.847 27.858-19.847m0 7.99c-9.15 0-17.313 5.815-20.306 14.47-1.878 5.424-1.53 11.255.978 16.416 2.51 5.163 6.877 9.04 12.303 10.917 2.28.79 4.645 1.19 7.028 1.19 9.15 0 17.31-5.815 20.305-14.472 1.877-5.422 1.528-11.254-.978-16.415-2.51-5.163-6.88-9.04-12.302-10.917h-.002c-2.276-.79-4.64-1.188-7.024-1.188z"/></g><g fill="#B20909"><path d="M122 23v13.9L134.292 23zM146 23v13.9L133.587 23zM122 0h24v23h-24z"/></g></svg>